<?xml version="1.0" standalone="no"?><!DOCTYPE svg PUBLIC "-//W3C//DTD SVG 1.1//EN" "http://www.w3.org/Graphics/SVG/1.1/DTD/svg11.dtd"><svg t="1636884121210" class="icon" viewBox="0 0 1024 1024" version="1.1" xmlns="http://www.w3.org/2000/svg" p-id="3834" xmlns:xlink="http://www.w3.org/1999/xlink" width="200" height="200"><defs><style type="text/css"></style></defs><path d="M785.642667 184.917333a32 32 0 0 1 22.442666 46.656l-7.573333 14.229334c-13.184 25.173333-22.656 45.333333-28.373333 60.288l-1.344 3.669333-2.56 7.68a299.370667 299.370667 0 0 1 84.693333 114.56l3.370667 8.405333h51.626666a32 32 0 0 1 31.850667 28.906667l0.128 3.072v170.666667a32 32 0 0 1-28.906667 31.850666l-3.072 0.149334H847.146667a299.797333 299.797333 0 0 1-132.693334 137.344l-7.296 3.648-24.341333 91.264a32 32 0 0 1-28.053333 23.616l-2.88 0.128h-64a32 32 0 0 1-30.037334-20.992l-0.853333-2.752-16.426667-61.589334h-166.016l-5.973333-0.042666-16.426667 61.632a32 32 0 0 1-28.053333 23.616l-2.88 0.128h-64a32 32 0 0 1-30.037333-21.013334l-0.874667-2.730666-32.704-122.624a298.218667 298.218667 0 0 1-117.717333-237.632 298.453333 298.453333 0 0 1 141.952-254.293334 32 32 0 1 1 33.621333 54.464 234.453333 234.453333 0 0 0-111.573333 199.829334c0 77.504 37.824 148.608 100.117333 192.298666a32 32 0 0 1 11.562667 14.890667l0.981333 3.050667 29.269333 109.76h14.826667l16.874667-63.253334a32 32 0 0 1 34.496-23.552c5.845333 0.64 11.733333 1.088 17.642666 1.322667l8.896 0.149333h190.570667a32 32 0 0 1 30.08 21.013334l0.853333 2.752 16.426667 61.568h14.826667l21.930666-82.176a32 32 0 0 1 18.56-21.248 235.541333 235.541333 0 0 0 128.426667-132.074667 32 32 0 0 1 26.837333-20.330667l3.008-0.149333h49.813334v-106.666667h-42.581334a32 32 0 0 1-30.72-23.061333 234.944 234.944 0 0 0-77.973333-116.906667l-8.618667-6.762666c-21.76-18.24-18.986667-44.842667 5.013334-96.426667l2.666666-5.632 5.589334-11.434667c-48.64 1.237333-91.242667 20.672-129.408 58.837334a32 32 0 0 1-45.248-45.248c64.277333-64.298667 142.421333-88.96 231.018666-72.853334z m-124.842667 243.797334a32 32 0 1 1 0 64 32 32 0 0 1 0-64zM405.333333 85.333333a128 128 0 1 1 0 256 128 128 0 0 1 0-256z m0 64a64 64 0 1 0 0 128 64 64 0 0 0 0-128z" fill="#1296db" p-id="3835"></path></svg>